<svg width="192" height="192" viewBox="0 0 192 192" fill="none" xmlns="http://www.w3.org/2000/svg">
  <rect width="192" height="192" rx="24" fill="#DC2626"/>
  <path d="M96 32C62.8629 32 36 58.8629 36 92C36 125.137 62.8629 152 96 152C129.137 152 156 125.137 156 92C156 58.8629 129.137 32 96 32ZM96 140C70.1472 140 48 117.853 48 92C48 66.1472 70.1472 44 96 44C121.853 44 144 66.1472 144 92C144 117.853 121.853 140 96 140Z" fill="white"/>
  <path d="M96 56C75.402 56 58 73.402 58 94C58 114.598 75.402 132 96 132C116.598 132 134 114.598 134 94C134 73.402 116.598 56 96 56ZM96 120C81.6406 120 70 108.359 70 94C70 79.6406 81.6406 68 96 68C110.359 68 122 79.6406 122 94C122 108.359 110.359 120 96 120Z" fill="white"/>
  <circle cx="96" cy="94" r="12" fill="white"/>
</svg>
